<svg width="17" height="15" viewBox="0 0 17 15" fill="none" xmlns="http://www.w3.org/2000/svg">
<path d="M10.3694 14.7864C10.099 15.0712 9.6604 15.0712 9.38962 14.7864C9.11905 14.5018 9.11905 14.0398 9.38962 13.755L14.6369 8.2311L0.695037 8.2311C0.311276 8.2311 1.24081e-06 7.90342 1.31144e-06 7.49943C1.38212e-06 7.09521 0.311276 6.76775 0.695037 6.76775L14.6299 6.76776L9.38265 1.24388C9.25248 1.10731 9.17934 0.921467 9.17934 0.728066C9.17934 0.534435 9.25248 0.349053 9.38265 0.21225C9.51282 0.0740735 9.6911 -0.0024626 9.87612 5.89473e-05C10.0605 0.000975461 10.2375 0.077053 10.3694 0.212251L16.7982 6.97972C16.929 7.11767 17.0019 7.30488 17 7.49943C16.9987 7.69352 16.9264 7.87913 16.7982 8.01868L10.3694 14.7864Z" fill="#093B54"/>
</svg>
