<svg width="27" height="27" viewBox="0 0 27 27" fill="none" xmlns="http://www.w3.org/2000/svg">
<path d="M16.4737 13.5L26.5687 3.40398C26.8463 3.12606 26.9996 2.75528 27 2.35991C27 1.96432 26.8468 1.5931 26.5687 1.31562L25.684 0.43115C25.4059 0.152571 25.0351 0 24.6394 0C24.2442 0 23.8735 0.152571 23.5954 0.43115L13.5004 10.5265L3.40507 0.43115C3.12739 0.152571 2.75641 0 2.36085 0C1.96573 0 1.59476 0.152571 1.31707 0.43115L0.432 1.31562C-0.144 1.89166 -0.144 2.8286 0.432 3.40398L10.5271 13.5L0.432 23.5956C0.154098 23.8739 0.00109756 24.2447 0.00109756 24.6401C0.00109756 25.0355 0.154098 25.4062 0.432 25.6844L1.31685 26.5688C1.59454 26.8472 1.96573 27 2.36063 27C2.7562 27 3.12717 26.8472 3.40485 26.5688L13.5002 16.4733L23.5951 26.5688C23.8733 26.8472 24.244 27 24.6391 27H24.6396C25.0349 27 25.4057 26.8472 25.6838 26.5688L26.5684 25.6844C26.8461 25.4065 26.9993 25.0355 26.9993 24.6401C26.9993 24.2447 26.8461 23.8739 26.5684 23.5958L16.4737 13.5Z" fill="white"/>
</svg>
