<svg width="16" height="12" viewBox="0 0 16 12" fill="none" xmlns="http://www.w3.org/2000/svg">
<path d="M10.606 5.75117L16 9.26451V2.08948L10.606 5.75117Z" fill="#582D7F"/>
<path d="M0 2.08948V9.26451L5.394 5.75117L0 2.08948Z" fill="#582D7F"/>
<path d="M14.9998 0H0.999787C0.500787 0 0.104785 0.383273 0.0297852 0.876788L7.9998 6.2869L15.9698 0.876788C15.8948 0.383273 15.4988 0 14.9998 0Z" fill="#582D7F"/>
<path d="M9.69023 6.37335L8.27523 7.33359C8.19123 7.39025 8.09623 7.41807 8.00023 7.41807C7.90423 7.41807 7.80923 7.39025 7.72523 7.33359L6.31023 6.37231L0.0322266 10.4636C0.109226 10.953 0.503229 11.3332 1.00023 11.3332H15.0002C15.4972 11.3332 15.8912 10.953 15.9682 10.4636L9.69023 6.37335Z" fill="#582D7F"/>
</svg>
