<svg width="30" height="30" viewBox="0 0 30 30" fill="none" xmlns="http://www.w3.org/2000/svg">
<path d="M26.0747 4.6957H26.0745L3.92676 4.6957L3.92659 4.6957C3.11013 4.69663 2.32739 5.02138 1.75007 5.5987C1.17275 6.17602 0.848 6.95876 0.84707 7.77522V7.77539L0.84707 22.2246L0.84707 22.2248C0.848 23.0412 1.17275 23.824 1.75007 24.4013C2.32739 24.9786 3.11013 25.3034 3.92659 25.3043H3.92676H26.0745H26.0747C26.8911 25.3034 27.6739 24.9786 28.2512 24.4013C28.8285 23.824 29.1532 23.0412 29.1542 22.2248V22.2246V7.77539V7.77522C29.1533 6.95877 28.8286 6.17601 28.2512 5.59869C27.6739 5.02136 26.8912 4.69662 26.0747 4.6957ZM13.7653 16.7667L13.7642 16.7659L2.31895 7.96238L2.31895 7.77556C2.31895 7.77552 2.31895 7.77549 2.31895 7.77546C2.31945 7.34918 2.48902 6.9405 2.79044 6.63908C3.09187 6.33765 3.50055 6.16809 3.92682 6.16758C3.92686 6.16758 3.92689 6.16758 3.92693 6.16758H26.0743C26.0744 6.16758 26.0744 6.16758 26.0744 6.16758C26.5007 6.16809 26.9094 6.33765 27.2108 6.63908C27.5123 6.94053 27.6818 7.34924 27.6823 7.77556V7.96552L16.466 16.7689C16.4659 16.769 16.4659 16.769 16.4658 16.7691C16.08 17.0702 15.6046 17.2335 15.1152 17.2331C14.6258 17.2327 14.1506 17.0686 13.7653 16.7667ZM17.3723 17.9284L17.3725 17.9282L19.9249 15.9254L27.3801 23.162C27.2433 23.3526 27.0661 23.5113 26.8607 23.6266C26.6205 23.7614 26.3498 23.8322 26.0745 23.8324H3.92684C3.65235 23.8322 3.38247 23.7618 3.14289 23.6279C2.93871 23.5137 2.76233 23.3566 2.62561 23.168L10.2937 15.9538L12.8624 17.9295C12.8626 17.9296 12.8627 17.9298 12.8628 17.9299C13.5068 18.4327 14.3005 18.7058 15.1176 18.7056C15.9348 18.7054 16.7285 18.4318 17.3723 17.9284ZM21.0933 15.008L27.6824 9.83657V21.4042L21.0933 15.008ZM2.31895 9.8193L9.11194 15.0443L2.31895 21.4354V9.8193Z" fill="#582D7F" stroke="#582D7F" stroke-width="0.3"/>
</svg>
