<svg width="52" height="52" viewBox="0 0 52 52" fill="none" xmlns="http://www.w3.org/2000/svg">
<g clip-path="url(#clip0_144_747)">
<path d="M26 1C12.2149 1 1 12.2149 1 26C1 39.7851 12.2149 51 26 51C39.7851 51 51 39.7851 51 26C51 12.2149 39.7851 1 26 1ZM26 49.9583C12.7895 49.9583 2.0417 39.2105 2.0417 26C2.0417 12.7895 12.7895 2.0417 26 2.0417C39.2105 2.0417 49.9583 12.7895 49.9583 26C49.9583 39.2105 39.2105 49.9583 26 49.9583Z" fill="#2D2D2D" stroke="#2D2D2D" stroke-width="0.5"/>
<path d="M26.0002 6.20825C15.0871 6.20825 6.2085 15.0869 6.2085 25.9999C6.2085 36.913 15.0871 45.7916 26.0002 45.7916C36.9133 45.7916 45.7919 36.913 45.7919 25.9999C45.7919 15.0869 36.9133 6.20825 26.0002 6.20825ZM26.0002 44.7499C15.6613 44.7499 7.2502 36.3388 7.2502 25.9999C7.2502 15.6611 15.6613 7.24995 26.0002 7.24995C36.3391 7.24995 44.7502 15.6611 44.7502 25.9999C44.7502 36.3388 36.3391 44.7499 26.0002 44.7499Z" fill="#2D2D2D" stroke="#2D2D2D" stroke-width="0.5"/>
<path d="M28.0855 14.7413H21.1587C21.1499 14.7408 21.1425 14.7362 21.1335 14.7362C20.8459 14.7362 20.6127 14.9694 20.6127 15.257V15.2621V25.2215H18.6746C18.387 25.2215 18.1538 25.4547 18.1538 25.7423C18.1538 26.0299 18.387 26.2631 18.6746 26.2631H20.6127V28.4677H18.6746C18.387 28.4677 18.1538 28.701 18.1538 28.9886C18.1538 29.2761 18.387 29.5094 18.6746 29.5094H20.6127V36.7428C20.6127 37.0303 20.8459 37.2635 21.1335 37.2635C21.4211 37.2635 21.6543 37.0303 21.6543 36.7428V29.5094H31.0529C31.3405 29.5094 31.5737 29.2761 31.5737 28.9886C31.5737 28.701 31.3405 28.4677 31.0529 28.4677H21.6544V26.2631H22.5323H27.7208C30.915 26.2631 33.598 23.9361 33.8286 20.9655C33.8286 20.9652 33.8286 20.9652 33.8286 20.9652C34.0965 17.5122 31.3703 14.7413 28.0855 14.7413ZM32.7901 20.8849V20.8846C32.6014 23.3167 30.3746 25.2215 27.7208 25.2215H22.5323H21.6544V15.7829H28.0855C30.7753 15.783 33.0102 18.049 32.7901 20.8849Z" fill="#2D2D2D" stroke="#2D2D2D" stroke-width="0.5"/>
</g>
<defs>
<clipPath id="clip0_144_747">
<rect width="52" height="52" fill="white"/>
</clipPath>
</defs>
</svg>
