<svg width="52" height="52" viewBox="0 0 52 52" fill="none" xmlns="http://www.w3.org/2000/svg">
<g clip-path="url(#clip0_144_751)">
<path d="M26 1C12.2149 1 1 12.2149 1 26C1 39.7851 12.2149 51 26 51C39.7851 51 51 39.7851 51 26C51 12.2149 39.7851 1 26 1ZM26 49.9583C12.7895 49.9583 2.0417 39.2105 2.0417 26C2.0417 12.7895 12.7895 2.0417 26 2.0417C39.2105 2.0417 49.9583 12.7895 49.9583 26C49.9583 39.2105 39.2105 49.9583 26 49.9583Z" fill="#2D2D2D" stroke="#2D2D2D" stroke-width="0.5"/>
<path d="M26.0002 6.20825C15.0871 6.20825 6.2085 15.0869 6.2085 25.9999C6.2085 36.913 15.0871 45.7916 26.0002 45.7916C36.9133 45.7916 45.7919 36.913 45.7919 25.9999C45.7919 15.0869 36.9133 6.20825 26.0002 6.20825ZM26.0002 44.7499C15.6613 44.7499 7.2502 36.3388 7.2502 25.9999C7.2502 15.6611 15.6613 7.24995 26.0002 7.24995C36.3391 7.24995 44.7502 15.6611 44.7502 25.9999C44.7502 36.3388 36.3391 44.7499 26.0002 44.7499Z" fill="#2D2D2D" stroke="#2D2D2D" stroke-width="0.5"/>
<path d="M17 24.6374L24.2247 32L36 20" stroke="#2D2D2D" stroke-width="2" stroke-miterlimit="10" stroke-linecap="round"/>
</g>
<defs>
<clipPath id="clip0_144_751">
<rect width="52" height="52" fill="white"/>
</clipPath>
</defs>
</svg>
