<svg width="50" height="50" viewBox="0 0 50 50" fill="none" xmlns="http://www.w3.org/2000/svg">
<path d="M33.5938 24.2188H27.1999C27.0833 23.8919 26.8956 23.5951 26.6502 23.3498C26.4049 23.1044 26.1081 22.9167 25.7813 22.8002V13.2812C25.7813 13.074 25.699 12.8753 25.5524 12.7288C25.4059 12.5823 25.2072 12.5 25 12.5C24.7928 12.5 24.5941 12.5823 24.4476 12.7288C24.3011 12.8753 24.2188 13.074 24.2188 13.2812V22.8002C23.8459 22.9313 23.5123 23.1548 23.2492 23.4498C22.9861 23.7449 22.8022 24.1018 22.7145 24.4872C22.6268 24.8727 22.6383 25.274 22.7479 25.6538C22.8575 26.0336 23.0615 26.3794 23.341 26.659C23.6206 26.9385 23.9664 27.1426 24.3462 27.2521C24.726 27.3617 25.1273 27.3732 25.5128 27.2855C25.8982 27.1978 26.2551 27.0139 26.5502 26.7508C26.8452 26.4877 27.0687 26.1542 27.1999 25.7812H33.5938C33.801 25.7812 33.9997 25.6989 34.1462 25.5524C34.2927 25.4059 34.375 25.2072 34.375 25C34.375 24.7928 34.2927 24.5941 34.1462 24.4476C33.9997 24.3011 33.801 24.2188 33.5938 24.2188ZM25 25.7812C24.8455 25.7812 24.6944 25.7354 24.566 25.6496C24.4375 25.5637 24.3374 25.4417 24.2782 25.299C24.2191 25.1562 24.2036 24.9991 24.2338 24.8476C24.2639 24.696 24.3383 24.5568 24.4476 24.4476C24.5568 24.3383 24.696 24.2639 24.8476 24.2338C24.9991 24.2036 25.1562 24.2191 25.299 24.2782C25.4417 24.3374 25.5638 24.4375 25.6496 24.566C25.7354 24.6944 25.7813 24.8455 25.7813 25C25.7811 25.2072 25.6988 25.4058 25.5523 25.5523C25.4058 25.6988 25.2072 25.7811 25 25.7812ZM39.3972 10.6882C39.3835 10.6722 39.3783 10.6521 39.3631 10.6369C39.3479 10.6217 39.3278 10.6165 39.3118 10.6028C35.5121 6.81469 30.3655 4.68749 25 4.68749C19.6345 4.68749 14.4879 6.81469 10.6882 10.6028C10.6722 10.6165 10.6521 10.6217 10.6369 10.6369C10.6217 10.6521 10.6165 10.6722 10.6029 10.6882C6.8147 14.4879 4.6875 19.6345 4.6875 25C4.6875 30.3654 6.8147 35.5121 10.6029 39.3118C10.6165 39.3278 10.6217 39.3479 10.6369 39.3631C10.6521 39.3783 10.6722 39.3835 10.6882 39.3971C14.4879 43.1853 19.6345 45.3125 25 45.3125C30.3655 45.3125 35.5121 43.1853 39.3118 39.3971C39.3278 39.3835 39.3479 39.3783 39.3631 39.3631C39.3783 39.3479 39.3835 39.3278 39.3972 39.3118C43.1853 35.5121 45.3125 30.3654 45.3125 25C45.3125 19.6345 43.1853 14.4879 39.3972 10.6882ZM38.778 37.6733L37.1536 36.0489C37.0066 35.9048 36.8087 35.8246 36.6029 35.8257C36.3971 35.8267 36.2 35.9089 36.0545 36.0544C35.909 36.2 35.8267 36.3971 35.8257 36.6029C35.8247 36.8087 35.9049 37.0066 36.049 37.1536L37.6733 38.778C34.4205 41.7816 30.2051 43.53 25.7813 43.7104V41.4062C25.7813 41.1991 25.699 41.0003 25.5524 40.8538C25.4059 40.7073 25.2072 40.625 25 40.625C24.7928 40.625 24.5941 40.7073 24.4476 40.8538C24.3011 41.0003 24.2188 41.1991 24.2188 41.4062V43.7104C19.7949 43.53 15.5796 41.7816 12.3267 38.778L13.9511 37.1536C14.0952 37.0066 14.1754 36.8087 14.1744 36.6029C14.1733 36.3971 14.0911 36.2 13.9456 36.0545C13.8 35.909 13.603 35.8267 13.3971 35.8257C13.1913 35.8247 12.9934 35.9049 12.8464 36.0489L11.222 37.6733C8.21841 34.4204 6.47004 30.2051 6.28959 25.7812H8.59376C8.80096 25.7812 8.99967 25.6989 9.14619 25.5524C9.2927 25.4059 9.37501 25.2072 9.37501 25C9.37501 24.7928 9.2927 24.5941 9.14619 24.4476C8.99967 24.3011 8.80096 24.2188 8.59376 24.2188H6.28959C6.47004 19.7949 8.21841 15.5796 11.222 12.3267L12.8464 13.9511C12.9934 14.0952 13.1913 14.1754 13.3971 14.1743C13.6029 14.1733 13.8 14.0911 13.9455 13.9456C14.0911 13.8 14.1733 13.6029 14.1743 13.3971C14.1754 13.1913 14.0951 12.9934 13.9511 12.8464L12.3267 11.222C15.5796 8.2184 19.7949 6.47002 24.2188 6.28958V8.59375C24.2188 8.80095 24.3011 8.99966 24.4476 9.14618C24.5941 9.29269 24.7928 9.375 25 9.375C25.2072 9.375 25.4059 9.29269 25.5524 9.14618C25.699 8.99966 25.7813 8.80095 25.7813 8.59375V6.28958C30.2051 6.47002 34.4204 8.2184 37.6733 11.222L36.0489 12.8464C35.9752 12.9186 35.9165 13.0048 35.8762 13.0999C35.836 13.195 35.815 13.2971 35.8145 13.4004C35.814 13.5036 35.8339 13.6059 35.8732 13.7014C35.9125 13.7969 35.9703 13.8837 36.0433 13.9567C36.1163 14.0297 36.2031 14.0875 36.2985 14.1268C36.394 14.166 36.4964 14.186 36.5996 14.1855C36.7029 14.1849 36.805 14.164 36.9001 14.1237C36.9952 14.0835 37.0813 14.0248 37.1536 13.9511L38.778 12.3267C41.7816 15.5796 43.53 19.7949 43.7104 24.2188H41.4063C41.1991 24.2188 41.0003 24.3011 40.8538 24.4476C40.7073 24.5941 40.625 24.7928 40.625 25C40.625 25.2072 40.7073 25.4059 40.8538 25.5524C41.0003 25.6989 41.1991 25.7812 41.4063 25.7812H43.7104C43.53 30.2051 41.7816 34.4204 38.778 37.6733ZM25 0C20.0555 0 15.222 1.46622 11.1108 4.21326C6.99953 6.96029 3.79521 10.8648 1.90302 15.4329C0.0108321 20.0011 -0.484251 25.0277 0.480379 29.8773C1.44501 34.7268 3.82603 39.1814 7.32234 42.6777C10.8187 46.174 15.2732 48.555 20.1228 49.5196C24.9723 50.4843 29.9989 49.9892 34.5671 48.097C39.1353 46.2048 43.0397 43.0005 45.7868 38.8893C48.5338 34.778 50 29.9445 50 25C49.9924 18.3719 47.3561 12.0175 42.6693 7.3307C37.9825 2.64394 31.6281 0.00758028 25 0ZM25 48.4375C20.3645 48.4375 15.8331 47.0629 11.9788 44.4876C8.12456 41.9122 5.12051 38.2518 3.34658 33.9691C1.57266 29.6865 1.10852 24.974 2.01286 20.4276C2.9172 15.8811 5.1494 11.705 8.4272 8.42719C11.705 5.14939 15.8812 2.91719 20.4276 2.01285C24.974 1.1085 29.6865 1.57264 33.9692 3.34657C38.2518 5.1205 41.9122 8.12455 44.4876 11.9788C47.0629 15.8331 48.4375 20.3645 48.4375 25C48.4305 31.2139 45.9589 37.1712 41.5651 41.5651C37.1712 45.9589 31.2139 48.4305 25 48.4375Z" fill="#2D2D2D"/>
</svg>
