<svg width="52" height="52" viewBox="0 0 52 52" fill="none" xmlns="http://www.w3.org/2000/svg">
<g clip-path="url(#clip0_144_755)">
<path d="M26 1C12.2149 1 1 12.2149 1 26C1 39.7851 12.2149 51 26 51C39.7851 51 51 39.7851 51 26C51 12.2149 39.7851 1 26 1ZM26 49.9583C12.7895 49.9583 2.0417 39.2105 2.0417 26C2.0417 12.7895 12.7895 2.0417 26 2.0417C39.2105 2.0417 49.9583 12.7895 49.9583 26C49.9583 39.2105 39.2105 49.9583 26 49.9583Z" fill="#2D2D2D" stroke="#2D2D2D" stroke-width="0.5"/>
<path d="M26.0002 6.20825C15.0871 6.20825 6.2085 15.0869 6.2085 25.9999C6.2085 36.913 15.0871 45.7916 26.0002 45.7916C36.9133 45.7916 45.7919 36.913 45.7919 25.9999C45.7919 15.0869 36.9133 6.20825 26.0002 6.20825ZM26.0002 44.7499C15.6613 44.7499 7.2502 36.3388 7.2502 25.9999C7.2502 15.6611 15.6613 7.24995 26.0002 7.24995C36.3391 7.24995 44.7502 15.6611 44.7502 25.9999C44.7502 36.3388 36.3391 44.7499 26.0002 44.7499Z" fill="#2D2D2D" stroke="#2D2D2D" stroke-width="0.5"/>
<path d="M25.6347 34.2576C25.1712 34.2576 24.718 34.395 24.3326 34.6526C23.9472 34.9101 23.6468 35.2762 23.4694 35.7044C23.292 36.1327 23.2456 36.6039 23.336 37.0586C23.4264 37.5132 23.6497 37.9308 23.9774 38.2586C24.3052 38.5864 24.7228 38.8096 25.1775 38.9001C25.6321 38.9905 26.1034 38.9441 26.5316 38.7667C26.9599 38.5893 27.3259 38.2889 27.5835 37.9035C27.841 37.518 27.9785 37.0649 27.9785 36.6013C27.9778 35.9799 27.7306 35.3842 27.2913 34.9448C26.8519 34.5054 26.2561 34.2583 25.6347 34.2576ZM25.6347 37.3826C25.4802 37.3826 25.3292 37.3368 25.2007 37.2509C25.0722 37.1651 24.9721 37.0431 24.9129 36.9003C24.8538 36.7576 24.8383 36.6005 24.8685 36.4489C24.8986 36.2974 24.973 36.1582 25.0823 36.0489C25.1916 35.9396 25.3308 35.8652 25.4823 35.8351C25.6339 35.805 25.7909 35.8204 25.9337 35.8796C26.0764 35.9387 26.1985 36.0388 26.2843 36.1673C26.3702 36.2958 26.416 36.4468 26.416 36.6013C26.4158 36.8085 26.3335 37.0071 26.187 37.1536C26.0405 37.3001 25.8419 37.3824 25.6347 37.3826ZM22.9507 15.1284C22.6105 15.5018 22.3517 15.9418 22.1905 16.4205C22.0294 16.8992 21.9694 17.4062 22.0146 17.9093L23.1529 30.4284C23.2091 31.0478 23.4949 31.6238 23.9541 32.0432C24.4133 32.4626 25.0128 32.6952 25.6347 32.6952C26.2567 32.6952 26.8561 32.4626 27.3153 32.0432C27.7746 31.6238 28.0604 31.0478 28.1166 30.4284L29.2549 17.9093C29.3 17.4062 29.2401 16.8992 29.079 16.4205C28.9178 15.9418 28.6589 15.5018 28.3188 15.1284C27.969 14.7712 27.5514 14.4873 27.0905 14.2936C26.6296 14.0998 26.1347 14 25.6347 14C25.1348 14 24.6398 14.0998 24.1789 14.2936C23.7181 14.4873 23.3005 14.7712 22.9507 15.1284ZM26.5602 30.2865C26.5394 30.5176 26.4329 30.7326 26.2617 30.8891C26.0904 31.0457 25.8668 31.1325 25.6347 31.1325C25.4027 31.1325 25.179 31.0457 25.0078 30.8891C24.8365 30.7326 24.73 30.5176 24.7093 30.2865L23.571 17.7674C23.5448 17.4806 23.5787 17.1915 23.6706 16.9185C23.7624 16.6455 23.9101 16.3947 24.1043 16.182C24.2985 15.9693 24.5349 15.7994 24.7984 15.6832C25.0619 15.5669 25.3467 15.5069 25.6347 15.5069C25.9227 15.5069 26.2076 15.5669 26.4711 15.6832C26.7346 15.7994 26.971 15.9693 27.1652 16.182C27.3593 16.3947 27.5071 16.6455 27.5989 16.9185C27.6907 17.1915 27.7246 17.4806 27.6985 17.7674L26.5602 30.2865Z" fill="#2D2D2D"/>
</g>
<defs>
<clipPath id="clip0_144_755">
<rect width="52" height="52" fill="white"/>
</clipPath>
</defs>
</svg>
