<svg width="30" height="19" viewBox="0 0 30 19" fill="none" xmlns="http://www.w3.org/2000/svg">
<path d="M28.8281 0H1.17188C0.524648 0 0 0.60086 0 1.34211C0 2.08335 0.524648 2.68421 1.17188 2.68421H28.8281C29.4754 2.68421 30 2.08335 30 1.34211C30 0.60086 29.4754 0 28.8281 0Z" fill="white"/>
<path d="M28.8288 7.89478H11.8428C11.1955 7.89478 10.6709 8.49564 10.6709 9.23688C10.6709 9.97813 11.1955 10.579 11.8428 10.579H28.8288C29.476 10.579 30.0007 9.97813 30.0007 9.23688C30.0007 8.49564 29.476 7.89478 28.8288 7.89478Z" fill="white"/>
<path d="M28.8288 15.7894H11.8428C11.1955 15.7894 10.6709 16.3903 10.6709 17.1315C10.6709 17.8728 11.1955 18.4736 11.8428 18.4736H28.8288C29.476 18.4736 30.0007 17.8728 30.0007 17.1315C30.0007 16.3903 29.476 15.7894 28.8288 15.7894Z" fill="white"/>
</svg>
