<svg width="30" height="30" viewBox="0 0 30 30" fill="none" xmlns="http://www.w3.org/2000/svg">
<g clip-path="url(#clip0_401_25)">
<path d="M21.9843 19.6219C21.7231 19.3597 21.4126 19.1517 21.0707 19.0097C20.7288 18.8678 20.3623 18.7947 19.9922 18.7947C19.622 18.7947 19.2555 18.8678 18.9136 19.0097C18.5717 19.1517 18.2613 19.3597 18 19.6219L16.6406 20.9813C15.11 20.0099 13.692 18.8717 12.4125 17.5875C11.131 16.3056 9.99307 14.8878 9.01872 13.3594L10.3781 12C10.6403 11.7387 10.8483 11.4283 10.9903 11.0864C11.1322 10.7445 11.2053 10.378 11.2053 10.0078C11.2053 9.63768 11.1322 9.27115 10.9903 8.92929C10.8483 8.58742 10.6403 8.27694 10.3781 8.01565L7.72497 5.3719C7.46737 5.10884 7.15951 4.90024 6.81969 4.75851C6.47987 4.61679 6.11503 4.54483 5.74684 4.5469C5.37605 4.54599 5.00873 4.61842 4.66603 4.76C4.32332 4.90159 4.012 5.10954 3.74997 5.3719L2.47497 6.63753C1.86725 7.29094 1.41369 8.07223 1.14762 8.92397C0.881555 9.77572 0.809744 10.6763 0.937469 11.5594C1.23747 15.075 3.54372 19.3032 7.09684 22.8657C10.65 26.4282 14.925 28.725 18.4406 29.0625C18.7029 29.0765 18.9658 29.0765 19.2281 29.0625C19.9849 29.0943 20.7404 28.9747 21.4503 28.7107C22.1603 28.4466 22.8103 28.0436 23.3625 27.525L24.6281 26.25C24.8905 25.988 25.0984 25.6767 25.24 25.334C25.3816 24.9913 25.454 24.624 25.4531 24.2532C25.4552 23.885 25.3832 23.5201 25.2415 23.1803C25.0998 22.8405 24.8912 22.5326 24.6281 22.275L21.9843 19.6219ZM23.3062 24.9282L22.0312 26.1938C21.5598 26.5867 21.0095 26.8737 20.4175 27.0354C19.8255 27.1972 19.2057 27.2299 18.6 27.1313C15.5531 26.8688 11.6718 24.7125 8.46559 21.5063C5.25934 18.3 3.10309 14.4469 2.81247 11.4C2.71137 10.7943 2.74283 10.1739 2.90468 9.58152C3.06653 8.98915 3.35492 8.43892 3.74997 7.96878L5.07184 6.69378C5.15944 6.60689 5.26333 6.53815 5.37756 6.49149C5.49178 6.44484 5.61409 6.42119 5.73747 6.4219C5.86085 6.42119 5.98316 6.44484 6.09738 6.49149C6.2116 6.53815 6.31549 6.60689 6.40309 6.69378L9.05622 9.37503C9.23083 9.55068 9.32884 9.78829 9.32884 10.036C9.32884 10.2836 9.23083 10.5213 9.05622 10.6969L7.18122 12.5719C7.0345 12.7179 6.94022 12.9084 6.91308 13.1136C6.88595 13.3188 6.92749 13.5272 7.03122 13.7063C8.15377 15.6173 9.51816 17.3756 11.0906 18.9375C12.6525 20.51 14.4108 21.8744 16.3218 22.9969C16.501 23.1006 16.7094 23.1422 16.9146 23.115C17.1198 23.0879 17.3102 22.9936 17.4562 22.8469L19.3312 20.9719C19.5069 20.7973 19.7445 20.6993 19.9922 20.6993C20.2398 20.6993 20.4774 20.7973 20.6531 20.9719L23.3062 23.625C23.3931 23.7126 23.4619 23.8165 23.5085 23.9307C23.5552 24.045 23.5788 24.1673 23.5781 24.2907C23.5722 24.5301 23.4749 24.7582 23.3062 24.9282ZM24.9375 5.05315C23.6346 3.74531 22.0857 2.70831 20.3801 2.00195C18.6746 1.29558 16.846 0.933823 15 0.937528C14.7513 0.937528 14.5129 1.0363 14.3371 1.21212C14.1612 1.38793 14.0625 1.62639 14.0625 1.87503C14.0625 2.12367 14.1612 2.36213 14.3371 2.53794C14.5129 2.71376 14.7513 2.81253 15 2.81253C16.6092 2.81247 18.2024 3.13109 19.6879 3.75001C21.1733 4.36893 22.5214 5.27589 23.6545 6.41855C24.7876 7.56121 25.6831 8.91694 26.2895 10.4075C26.8959 11.8981 27.2011 13.494 27.1875 15.1032C27.1875 15.3518 27.2862 15.5903 27.4621 15.7661C27.6379 15.9419 27.8763 16.0407 28.125 16.0407C28.3736 16.0407 28.6121 15.9419 28.7879 15.7661C28.9637 15.5903 29.0625 15.3518 29.0625 15.1032C29.0804 13.2375 28.7247 11.3871 28.0162 9.66103C27.3078 7.93499 26.261 6.36824 24.9375 5.05315Z" fill="#582D7F"/>
<path d="M19.6033 10.4157C20.1354 10.9445 20.5563 11.5744 20.8412 12.2683C21.1262 12.9623 21.2695 13.7062 21.2627 14.4563C21.2627 14.7049 21.3615 14.9434 21.5373 15.1192C21.7131 15.295 21.9516 15.3938 22.2002 15.3938C22.4488 15.3938 22.6873 15.295 22.8631 15.1192C23.0389 14.9434 23.1377 14.7049 23.1377 14.4563C23.1501 13.4635 22.9653 12.4782 22.5939 11.5574C22.2226 10.6366 21.6721 9.79869 20.9744 9.09229C20.2767 8.38589 19.4457 7.82505 18.5296 7.44229C17.6135 7.05953 16.6305 6.86247 15.6377 6.86255C15.3891 6.86255 15.1506 6.96132 14.9748 7.13714C14.799 7.31295 14.7002 7.55141 14.7002 7.80005C14.7002 8.04869 14.799 8.28715 14.9748 8.46296C15.1506 8.63878 15.3891 8.73755 15.6377 8.73755C16.3765 8.74311 17.107 8.89418 17.7874 9.18212C18.4679 9.47005 19.0849 9.88922 19.6033 10.4157Z" fill="#582D7F"/>
</g>
<defs>
<clipPath id="clip0_401_25">
<rect width="30" height="30" fill="white"/>
</clipPath>
</defs>
</svg>
