<svg width="21" height="38" viewBox="0 0 21 38" fill="none" xmlns="http://www.w3.org/2000/svg">
<path d="M17.968 0H2.364C1.064 0 0 1.15411 0 2.56663V35.4323C0 36.8448 1.064 38 2.364 38H17.968C19.268 38 20.332 36.847 20.332 35.4334V2.56663C20.332 1.15411 19.268 0 17.968 0ZM7.66999 1.85006H12.662C12.82 1.85006 12.948 1.98903 12.948 2.16166C12.948 2.3332 12.82 2.47217 12.662 2.47217H7.66999C7.51199 2.47217 7.38399 2.3332 7.38399 2.16166C7.38399 1.98903 7.51199 1.85006 7.66999 1.85006ZM10.166 36.7167C9.51299 36.7167 8.98399 36.1423 8.98399 35.4323C8.98399 34.7222 9.51299 34.149 10.166 34.149C10.819 34.149 11.348 34.7222 11.348 35.4323C11.348 36.1423 10.819 36.7167 10.166 36.7167ZM19.666 33.25H0.66599V4.07034H19.666V33.25Z" fill="#582D7F"/>
</svg>
