<svg width="22" height="30" viewBox="0 0 22 30" fill="none" xmlns="http://www.w3.org/2000/svg">
<path d="M21.8398 8.45068V28.7927C21.8398 29.4598 21.3008 30 20.6354 30H1.36461C0.69916 30 0.160156 29.4598 0.160156 28.7927V1.20727C0.160156 0.540234 0.69916 0 1.36461 0H13.4089L21.8398 8.45068Z" fill="#582D7F"/>
<path d="M20.0331 6.63953V28.7924C20.0331 29.4594 19.4941 29.9997 18.8286 29.9997H20.6352C21.3007 29.9997 21.8397 29.4594 21.8397 28.7924V8.45037L20.0331 6.63953Z" fill="#582D7F"/>
<path d="M21.8397 8.45068H14.6131C13.9479 8.45068 13.4087 7.91016 13.4087 7.24342V0L21.8397 8.45068Z" fill="#6C4194"/>
<path d="M16.8851 14.6377H5.11443C4.61439 14.6377 4.20898 14.2323 4.20898 13.7322C4.20898 13.2322 4.61434 12.8268 5.11443 12.8268H16.885C17.3851 12.8268 17.7905 13.2321 17.7905 13.7322C17.7905 14.2323 17.3851 14.6377 16.8851 14.6377Z" fill="#FAFAFA"/>
<path d="M16.8851 18.2599H5.11443C4.61439 18.2599 4.20898 17.8545 4.20898 17.3544C4.20898 16.8544 4.61434 16.449 5.11443 16.449H16.885C17.3851 16.449 17.7905 16.8543 17.7905 17.3544C17.7905 17.8545 17.3851 18.2599 16.8851 18.2599Z" fill="#FAFAFA"/>
<path d="M16.8851 21.8811H5.11443C4.61439 21.8811 4.20898 21.4757 4.20898 20.9756C4.20898 20.4756 4.61434 20.0702 5.11443 20.0702H16.885C17.3851 20.0702 17.7905 20.4755 17.7905 20.9756C17.7905 21.4757 17.3851 21.8811 16.8851 21.8811Z" fill="#FAFAFA"/>
<path d="M11.8146 25.5032H5.11443C4.61439 25.5032 4.20898 25.0978 4.20898 24.5977C4.20898 24.0977 4.61434 23.6923 5.11443 23.6923H11.8146C12.3147 23.6923 12.7201 24.0976 12.7201 24.5977C12.7201 25.0978 12.3147 25.5032 11.8146 25.5032Z" fill="#FAFAFA"/>
</svg>
