<svg width="600" height="558" viewBox="0 0 600 558" fill="none" xmlns="http://www.w3.org/2000/svg">
<path d="M250 5.99999C250 2.68629 252.686 0 256 0H344C347.314 0 350 2.68629 350 6V300H250V5.99999Z" fill="#059669"/>
<path d="M5.99999 300C2.68629 300 0 297.314 0 294V206C0 202.686 2.68629 200 6 200H594C597.314 200 600 202.686 600 206V294C600 297.314 597.314 300 594 300H5.99999Z" fill="#059669"/>
<path d="M163 250L249.603 300L102.603 554.611C100.946 557.481 97.2761 558.464 94.4064 556.808L18.1962 512.808C15.3264 511.151 14.3431 507.481 16 504.611L163 250Z" fill="#059669"/>
<path d="M350 300L436.603 250L583.603 504.611C585.259 507.481 584.276 511.151 581.406 512.808L505.196 556.808C502.326 558.464 498.657 557.481 497 554.611L350 300Z" fill="#059669"/>
</svg>
